<svg width="264" height="240" viewBox="0 0 264 240" fill="none" xmlns="http://www.w3.org/2000/svg">
<path d="M163.886 8.76726L228.458 90.3818L235.871 89.2848L171.299 7.67029L163.886 8.76726Z" fill="#F5F5F5"/>
<path d="M172.308 5.03757L164.895 6.13454L163.886 8.76726L171.299 7.67029L172.308 5.03757Z" fill="#28995A"/>
<path opacity="0.2" d="M172.308 5.03757L164.895 6.13454L163.886 8.76726L171.299 7.67029L172.308 5.03757Z" fill="black"/>
<path d="M235.871 89.2849L236.88 86.6521L172.308 5.03757L171.299 7.6703L235.871 89.2849Z" fill="#FAFAFA"/>
<path d="M180.073 14.9103L178.976 17.4553L184.196 23.9493L185.205 21.4044L180.073 14.9103Z" fill="#28995A"/>
<path d="M171.299 7.67029L173.844 10.9173L174.853 8.32848L172.308 5.03757L171.299 7.67029Z" fill="#28995A"/>
<path d="M190.337 27.9423L189.328 30.4873L194.549 37.0691L195.558 34.4364L190.337 27.9423Z" fill="#28995A"/>
<path d="M200.69 41.0182L199.681 43.5631L204.813 50.0572L205.91 47.5122L200.69 41.0182Z" fill="#28995A"/>
<path d="M211.043 54.0502L210.034 56.5951L215.166 63.177L216.175 60.5442L211.043 54.0502Z" fill="#28995A"/>
<path d="M221.395 67.0383L220.386 69.671L225.518 76.2089L226.527 73.664L221.395 67.0383Z" fill="#28995A"/>
<path d="M231.748 80.1581L230.651 82.703L235.871 89.2848L236.88 86.6521L231.748 80.1581Z" fill="#28995A"/>
<g opacity="0.4">
<path opacity="0.4" d="M180.073 14.9103L178.976 17.4553L184.196 23.9493L185.205 21.4044L180.073 14.9103Z" fill="white"/>
<path opacity="0.4" d="M171.299 7.67029L173.844 10.9173L174.853 8.32848L172.308 5.03757L171.299 7.67029Z" fill="white"/>
<path opacity="0.4" d="M190.337 27.9423L189.328 30.4873L194.549 37.0691L195.558 34.4364L190.337 27.9423Z" fill="white"/>
<path opacity="0.4" d="M200.69 41.0182L199.681 43.5631L204.813 50.0572L205.91 47.5122L200.69 41.0182Z" fill="white"/>
<path opacity="0.4" d="M211.043 54.0502L210.034 56.5951L215.166 63.177L216.175 60.5442L211.043 54.0502Z" fill="white"/>
<path opacity="0.4" d="M221.395 67.0383L220.386 69.671L225.518 76.2089L226.527 73.664L221.395 67.0383Z" fill="white"/>
<path opacity="0.4" d="M231.748 80.1581L230.651 82.703L235.871 89.2848L236.88 86.6521L231.748 80.1581Z" fill="white"/>
</g>
<path d="M215.166 63.177L210.604 57.4288L210.034 56.5952L199.199 53.392L204.331 59.8861L215.166 63.177Z" fill="#28995A"/>
<path d="M194.549 37.0691L189.329 30.4873L178.494 27.2841L183.626 33.7782L194.549 37.0691Z" fill="#28995A"/>
<path d="M173.361 20.6584L184.196 23.9493L179.941 18.64L178.976 17.4553L168.141 14.1644L173.361 20.6584Z" fill="#28995A"/>
<path d="M204.813 50.0572L199.857 43.7825L199.681 43.5631L188.846 40.2722L193.978 46.8102L204.813 50.0572Z" fill="#28995A"/>
<path d="M214.684 72.918L225.519 76.209L221.702 71.3384L220.386 69.671L209.463 66.424L214.684 72.918Z" fill="#28995A"/>
<path d="M173.844 10.9173L171.299 7.67029L166.957 8.32847L173.844 10.9173Z" fill="#28995A"/>
<path d="M234.994 88.1879L230.651 82.703L219.816 79.4999L225.036 85.9939L235.871 89.2848L234.994 88.1879Z" fill="#28995A"/>
<path d="M230.344 90.1185L237.713 99.2892L243.197 98.4994L235.871 89.2848L230.344 90.1185Z" fill="#37474F"/>
<path d="M243.197 98.4994L244.206 95.9544L236.88 86.6521L235.871 89.2848L243.197 98.4994Z" fill="#455A64"/>
<path d="M231.528 142.773L248.329 133.076L262.717 141.325L245.96 151.066L231.528 142.773Z" fill="#455A64"/>
<path d="M231.528 142.773V145.537L245.96 153.874V151.066L231.528 142.773Z" fill="#263238"/>
<path d="M262.717 141.325V144.177L245.96 153.874V151.066L262.717 141.325Z" fill="#37474F"/>
<path d="M247.584 85.3357C247.145 85.1164 246.531 85.1164 245.741 85.4674L238.854 89.4604C237.494 90.294 236.31 92.3125 236.31 93.8921V142.729L245.96 148.302L257.98 141.325V92.488C257.98 91.6543 257.673 91.1277 257.234 90.8206C256.752 90.6012 248.022 85.599 247.584 85.3357Z" fill="#28995A"/>
<path opacity="0.2" d="M246.662 96.9636C246.224 97.7973 245.917 98.631 245.917 99.5086V148.346L236.266 142.773V93.8921C236.266 93.0584 236.573 92.137 237.012 91.3471L246.662 96.9636Z" fill="black"/>
<path d="M245.96 99.4647C245.96 97.8412 247.101 95.8667 248.505 95.033L255.392 91.04C256.752 90.2063 257.936 90.9083 257.936 92.488V141.325L245.917 148.302V99.4647H245.96Z" fill="#28995A"/>
<path opacity="0.4" d="M257.146 90.9084C256.708 90.689 256.094 90.689 255.392 91.1277L248.505 95.1207C247.803 95.5156 247.145 96.1738 246.662 97.0514L237.012 91.4788C237.45 90.7328 238.064 89.943 238.854 89.5481L245.741 85.5551C246.443 85.1602 247.101 85.1164 247.583 85.4235C248.022 85.599 256.445 90.4257 257.146 90.9084Z" fill="white"/>
<path d="M248.329 100.693L255.523 96.5687V102.054L248.329 106.222V100.693Z" fill="#455A64"/>
<path d="M254.865 101.703L255.523 102.054V96.5687L254.865 96.9636V101.703Z" fill="#37474F"/>
<path d="M254.865 101.703V96.9636L248.329 100.693V105.432L254.865 101.703Z" fill="#28995A"/>
<path opacity="0.4" d="M254.865 101.703V96.9636L248.329 100.693V105.432L254.865 101.703Z" fill="black"/>
<path d="M248.329 109.337C248.241 109.337 248.11 109.25 248.11 109.206C248.022 109.074 248.11 108.899 248.198 108.811L255.392 104.686C255.523 104.599 255.699 104.686 255.787 104.774C255.874 104.906 255.787 105.081 255.699 105.169L248.505 109.294C248.417 109.25 248.417 109.337 248.329 109.337Z" fill="#455A64"/>
<path d="M248.329 112.102C248.241 112.102 248.11 112.014 248.11 111.97C248.022 111.839 248.11 111.663 248.198 111.575L255.392 107.451C255.523 107.363 255.699 107.451 255.787 107.538C255.874 107.67 255.787 107.846 255.699 107.933L248.505 112.058C248.417 112.102 248.417 112.102 248.329 112.102Z" fill="#455A64"/>
<path d="M248.329 114.866C248.241 114.866 248.11 114.778 248.11 114.735C248.022 114.603 248.11 114.427 248.198 114.34L255.392 110.215C255.523 110.127 255.699 110.215 255.787 110.303C255.874 110.434 255.787 110.61 255.699 110.698L248.505 114.822C248.417 114.866 248.417 114.866 248.329 114.866Z" fill="#455A64"/>
<path d="M100.06 70.6521C102.209 69.7307 103.131 68.3266 103.482 66.001C103.833 63.6754 103.657 61.2182 100.06 58.7171C96.5068 56.3916 93.8748 57.1814 92.4711 57.7957L100.06 70.6521Z" fill="#455A64"/>
<path d="M98.6562 70.8277C98.1737 70.8277 97.5595 70.5205 97.1209 70.2134L93.3922 67.7562C91.8569 66.6592 90.6286 64.5091 90.9357 62.6662L91.2427 59.9019C91.4182 58.3661 92.471 57.4446 94.0063 57.5763C94.4889 57.5763 95.103 57.8834 95.5417 58.1906L99.2703 60.6478C100.806 61.7448 102.034 63.8948 101.727 65.7377L101.42 68.5021C101.113 70.0379 100.06 70.9593 98.6562 70.8277Z" fill="#263238"/>
<path d="M94.7959 58.9365L98.5246 61.3937C99.9283 62.3152 100.85 64.1581 100.674 65.5622L100.367 68.3266C100.192 69.7307 98.9632 70.1695 97.735 69.4236L94.0063 66.9664C92.6026 66.0449 91.6814 64.202 91.8568 62.7979L92.1639 60.0335C92.3394 58.6294 93.5676 58.1467 94.7959 58.9365Z" fill="#455A64"/>
<g opacity="0.2">
<path opacity="0.2" d="M95.8927 59.6825L91.8569 62.6223L92.164 59.3753L93.2607 58.5855C93.7432 58.5855 94.1819 58.5855 94.796 59.0682L95.8927 59.6825Z" fill="white"/>
<path opacity="0.2" d="M99.1388 61.8325L93.129 66.1765C92.9536 66.001 92.822 65.6939 92.6465 65.5622L98.5246 61.3937C98.6562 61.5254 98.7878 61.7009 99.1388 61.8325Z" fill="white"/>
<path opacity="0.2" d="M100.499 65.7377V66.2204L96.6384 68.9848L94.9276 67.8878L100.323 64.0265C100.499 64.4652 100.674 65.0796 100.499 65.7377Z" fill="white"/>
</g>
<path d="M111.334 175.917L84.2679 160.34L102.209 149.809L129.407 165.562L111.334 175.917Z" fill="#FAFAFA"/>
<path opacity="0.3" d="M111.334 175.917L84.2679 160.34L102.209 149.809L129.407 165.562L111.334 175.917Z" fill="black"/>
<path d="M201.26 124.009L174.238 108.388L178.537 102.991L205.603 118.568L201.26 124.009Z" fill="#FAFAFA"/>
<path opacity="0.3" d="M201.26 124.009L174.238 108.388L178.537 102.991L205.603 118.568L201.26 124.009Z" fill="black"/>
<path d="M102.034 177.322L105.105 171.135L97.6911 166.791C95.3662 165.386 92.2956 165.562 88.7424 167.58C81.4605 171.749 75.6262 182.587 75.6262 191.845C75.6262 196.628 77.1616 200.051 79.7936 201.586H79.969L87.558 205.93L90.8041 199.436C96.9454 194.785 101.727 185.527 102.034 177.322Z" fill="#37474F"/>
<path d="M102.034 177.322L105.105 171.135L97.6911 166.791C95.3662 165.386 92.2956 165.562 88.7424 167.58C81.4605 171.749 75.6262 182.587 75.6262 191.845C75.6262 196.628 77.1616 200.051 79.7936 201.586H79.969L87.558 205.93L90.8041 199.436C96.9454 194.785 101.727 185.527 102.034 177.322Z" fill="black"/>
<path d="M109.623 181.051C109.623 188.949 105.28 198.076 99.402 203.166C98.4808 203.956 97.5596 204.702 96.4629 205.185C89.1811 209.353 83.3468 205.36 83.3468 196.233C83.3468 189.257 86.7684 181.402 91.5499 176.137C93.0852 174.425 94.796 173.065 96.5068 171.968C103.745 167.888 109.623 171.924 109.623 181.051Z" fill="#263238"/>
<path d="M96.5068 177.629C101.157 174.996 104.841 177.804 104.841 183.816C104.841 190.002 101.113 197.111 96.5068 199.744C91.8569 202.376 88.1721 199.568 88.1721 193.557C88.1283 187.37 91.8569 180.261 96.5068 177.629Z" fill="#37474F"/>
<path d="M100.367 187.063C100.06 190.134 98.0421 193.249 96.0242 194.346C95.103 194.829 94.3134 194.654 93.6993 194.171C92.9097 193.557 92.6026 192.328 92.7781 190.617C93.0851 187.545 95.103 184.298 97.1209 183.333C97.735 183.026 98.2175 183.026 98.6562 183.157C99.8845 183.377 100.499 184.737 100.367 187.063Z" fill="#455A64"/>
<path d="M109.623 181.051C109.623 188.949 105.28 198.076 99.402 203.166C102.955 199.436 106.508 192.942 107.737 186.931C108.833 181.665 108.526 174.118 103.876 172.1C99.402 170.257 93.3484 174.25 91.506 176.137C93.0413 174.425 94.7521 173.065 96.4629 171.968C103.745 167.888 109.623 171.924 109.623 181.051Z" fill="#455A64"/>
<path d="M192.004 125.369L195.075 119.182L187.662 114.838C185.337 113.434 182.266 113.609 178.713 115.628C171.431 119.796 165.597 130.634 165.597 139.893C165.597 144.676 167.132 148.098 169.764 149.634H169.939L177.528 153.978L180.775 147.484C187.047 143.008 191.697 133.574 192.004 125.369Z" fill="#37474F"/>
<path d="M192.004 125.369L195.075 119.182L187.662 114.838C185.337 113.434 182.266 113.609 178.713 115.628C171.431 119.796 165.597 130.634 165.597 139.893C165.597 144.676 167.132 148.098 169.764 149.634H169.939L177.528 153.978L180.775 147.484C187.047 143.008 191.697 133.574 192.004 125.369Z" fill="black"/>
<path d="M199.725 129.23C199.725 137.129 195.382 146.255 189.504 151.345C188.583 152.135 187.662 152.881 186.565 153.364C179.283 157.532 173.449 153.539 173.449 144.412C173.449 137.436 176.87 129.581 181.652 124.316C183.187 122.605 184.898 121.244 186.609 120.147C193.847 116.111 199.725 120.147 199.725 129.23Z" fill="#263238"/>
<path d="M186.433 125.852C191.083 123.219 194.768 126.027 194.768 132.039C194.768 138.05 191.039 145.334 186.433 147.967C181.783 150.599 178.099 147.791 178.099 141.78C178.099 135.593 181.959 128.484 186.433 125.852Z" fill="#37474F"/>
<path d="M190.294 135.11C189.987 138.182 187.969 141.297 185.951 142.394C185.03 142.877 184.24 142.701 183.626 142.218C182.836 141.604 182.529 140.376 182.705 138.664C183.012 135.593 185.03 132.346 187.048 131.38C187.662 131.073 188.144 131.073 188.583 131.205C189.811 131.424 190.469 132.96 190.294 135.11Z" fill="#455A64"/>
<path d="M199.725 129.23C199.725 137.129 195.382 146.255 189.504 151.345C193.057 147.616 196.61 141.121 197.839 135.11C198.935 129.845 198.628 122.297 193.978 120.279C189.504 118.436 183.45 122.429 181.608 124.316C183.143 122.605 184.854 121.244 186.565 120.147C193.847 116.111 199.725 120.147 199.725 129.23Z" fill="#455A64"/>
<path d="M213.631 99.4367V108.256C213.631 113.039 209.288 119.533 204.068 122.649L201.436 124.184C199.9 116.593 193.847 113.653 186.609 117.866C184.591 118.963 182.573 120.63 180.906 122.517C176.432 127.475 173.01 134.408 171.957 141.078L111.553 175.874C110.018 168.282 103.964 165.343 96.726 169.555C94.7082 170.784 92.6903 172.319 91.0234 174.338C86.549 179.296 83.1274 186.229 82.0746 192.898L76.0648 196.321C70.8008 199.393 65.8439 199.568 56.8951 196.321C47.9463 193.074 23.5126 179.647 12.9846 170.959C5.92204 165.255 3.29004 160.648 3.29004 154.899V144.544C3.29004 144.061 3.29004 143.447 3.29004 143.008C3.29004 142.57 3.29004 142.087 3.46551 141.604C3.64097 139.454 3.77257 137.436 4.25511 135.417C4.43057 134.496 4.56217 133.574 4.86924 132.653C6.40457 125.676 9.21204 119.84 11.6686 115.979C18.1608 105.755 20.6174 103.43 27.1096 99.5683L48.4288 108.081C48.4288 108.081 121.072 66.1765 132.653 59.5508C144.234 52.9251 175.16 54.8997 193.057 66.352C210.692 77.7605 213.631 87.5016 213.631 99.4367Z" fill="white"/>
<path opacity="0.15" d="M213.631 99.4367V108.256C213.631 113.039 209.288 119.533 204.068 122.649L201.436 124.184C199.9 116.593 193.847 113.653 186.609 117.866C184.591 118.963 182.573 120.63 180.906 122.517C176.432 127.475 173.01 134.408 171.957 141.078L111.553 175.873C110.018 168.282 103.964 165.343 96.726 169.555C94.7082 170.784 92.6903 172.319 91.0234 174.338C86.549 179.296 83.1274 186.229 82.0746 192.898L76.0648 196.321C70.8008 199.393 65.8439 199.568 56.8951 196.321C47.9463 193.074 23.5126 179.647 12.9846 170.959C5.92204 165.255 3.29004 160.648 3.29004 154.899V144.544C3.29004 144.061 3.29004 143.447 3.29004 143.008C3.29004 142.569 3.29004 142.087 3.46551 141.604C3.64097 139.454 3.77257 137.436 4.25511 135.417C4.43057 134.496 4.56217 133.574 4.86924 132.653C6.40457 125.676 9.21204 119.84 11.6686 115.979C18.1608 105.755 20.6174 103.43 27.1096 99.5683L48.4288 108.081C48.4288 108.081 92.6464 82.5872 117.519 68.195C124.625 64.1581 173.142 100.797 176.081 99.8754C192.312 95.0927 204.506 87.1945 206.524 77.3217C212.402 84.5617 213.631 91.5385 213.631 99.4367Z" fill="black"/>
<path opacity="0.15" d="M85.0576 128.484L26.4956 99.8754C20.1788 103.605 17.6784 105.887 11.3616 115.935C8.90503 119.796 6.09757 125.808 4.56223 132.609C4.25517 133.53 4.0797 134.32 3.9481 135.373C3.46557 137.392 3.33397 139.542 3.1585 141.56C3.1585 142.043 3.1585 142.482 2.98303 142.964C2.98303 143.447 2.98303 144.061 2.98303 144.5V154.899C2.98303 160.604 5.74663 165.255 12.546 170.827C23.074 179.472 47.4638 192.942 56.4565 196.189C62.3346 198.339 66.502 198.954 70.2306 198.339C68.8269 194.478 70.0552 186.58 72.073 170.959C74.705 151.521 78.0828 136.383 85.0576 128.484Z" fill="black"/>
<path d="M174.546 100.972C177.967 98.954 179.502 96.0141 178.274 92.7671L141.514 85.6587V96.1896L174.546 100.972Z" fill="#263238"/>
<path d="M96.3313 62.9295C105.148 62.9295 126.599 62.9295 132.477 62.9295C138.356 62.9295 148.401 66.352 160.903 74.5135C173.405 82.7188 186.872 93.6885 175.905 100.183L96.3313 62.9295Z" fill="#263238"/>
<path d="M97.428 64.0265C97.428 64.0265 129.714 64.0265 133.574 64.0265C139.145 64.0265 150.419 70.0379 159.368 75.3033C168.316 80.5688 182.222 93.3814 177.441 96.1896C175.73 97.2866 171.563 96.6723 159.368 95.0927C147.918 93.6885 143.927 93.2497 143.927 93.2497L97.428 64.0265Z" fill="#455A64"/>
<path opacity="0.2" d="M175.598 88.7302C171.738 83.9474 164.763 78.1993 159.543 75.1278C150.594 69.8624 139.277 63.851 133.75 63.851C129.889 63.851 97.6034 63.851 97.6034 63.851L114.273 74.3819L118.616 72.3634C113.22 69.1164 128.486 67.5807 137.303 68.8093C145.769 70.0379 169.106 80.7004 175.598 88.7302Z" fill="white"/>
<path d="M88.1282 133.443C87.6457 138.533 87.8211 140.551 87.8211 144.105C87.9966 147.659 90.5847 149.195 93.8309 147.352L174.326 100.972C177.572 99.1295 177.09 97.2427 173.537 96.8039L152.524 94.1712C148.796 93.6885 143.269 94.7855 140.154 96.6284L93.8747 123.394C90.6286 125.369 88.6107 128.484 88.1282 133.443Z" fill="#263238"/>
<path d="M89.8391 132.96C89.225 136.997 89.225 141.604 89.532 143.798C89.8391 145.817 91.5499 146.562 93.6994 145.334L168.492 102.201C170.641 100.972 170.334 99.7438 167.878 99.4367L149.629 97.1111C147.173 96.8039 143.444 97.5938 141.426 98.8224L93.6555 126.334C91.5499 127.563 90.4532 128.923 89.8391 132.96Z" fill="#37474F"/>
<path d="M123.09 106.984V130.196L124.625 129.23V106.238L123.09 106.984Z" fill="#263238"/>
<path d="M150.419 95.5314V114.399L151.954 113.478V94.61L150.419 95.5314Z" fill="#263238"/>
<path d="M69.4409 130.942C72.687 132.785 77.7756 132.785 81.0217 130.942L140.812 96.4529C146.076 93.3814 146.076 88.4231 140.812 85.3077L105.894 65.2112C100.63 62.1397 91.9884 62.1397 86.7244 65.2112L26.9341 99.7438C23.688 101.587 23.688 104.527 26.9341 106.369L69.4409 130.942Z" fill="white"/>
<path opacity="0.15" d="M72.8625 125.545C63.1241 121.069 56.3248 117.339 48.2972 109.924C40.2696 102.508 45.0511 92.7671 64.3524 77.936L26.8025 99.5683C23.5564 101.411 23.5564 104.351 26.8025 106.194L69.4409 130.766C72.6871 132.609 77.7756 132.609 81.0217 130.766L100.937 119.314C100.674 119.533 82.6009 130.02 72.8625 125.545Z" fill="black"/>
<path opacity="0.3" d="M140.856 85.3516L105.938 65.2551C102.385 63.2367 97.4278 62.6224 92.8218 63.2367C95.5854 63.0611 98.0858 63.7193 100.849 64.9479C105.324 66.9664 118.484 74.689 133.135 82.7188C147.831 90.9242 142.084 93.864 138.092 96.1457C134.056 98.4713 87.5578 127.212 81.0656 130.942L140.856 96.4529C146.076 93.3814 146.076 88.4231 140.856 85.3516Z" fill="white"/>
<path d="M22.0211 167.449V159.551C22.0211 158.629 22.6353 158.146 23.5565 158.629L36.9797 166.352C37.5938 166.659 38.2079 167.756 38.2079 168.502V176.225C38.2079 177.146 37.4183 177.629 36.6726 177.146L23.2494 169.423C22.6353 169.116 22.0211 168.195 22.0211 167.449Z" fill="#37474F"/>
<path d="M24.6093 150.117V149.02C24.6093 147.791 25.5305 147.308 26.4517 147.923L38.8221 155.031C39.9187 155.645 40.6645 157.181 40.6645 158.454V159.375C40.6645 160.604 39.7433 161.086 38.8221 160.472L26.4517 153.364C25.3989 152.749 24.6093 151.345 24.6093 150.117Z" fill="#FAFAFA"/>
<path opacity="0.2" d="M24.6093 150.117V149.02C24.6093 147.791 25.5305 147.308 26.4517 147.923L38.8221 155.031C39.9187 155.645 40.6645 157.181 40.6645 158.454V159.375C40.6645 160.604 39.7433 161.086 38.8221 160.472L26.4517 153.364C25.3989 152.749 24.6093 151.345 24.6093 150.117Z" fill="white"/>
<path d="M60.6238 164.509C57.9918 165.299 54.6141 166.966 53.8245 170.696C52.7278 175.171 54.4386 179.033 58.1673 179.954C59.7026 180.437 63.7384 179.779 66.809 175.303C68.9585 172.232 69.2656 167.405 68.0373 165.869C66.809 164.333 63.5629 163.719 60.6238 164.509Z" fill="#37474F"/>
<path d="M62.0275 169.599C62.0275 171.31 60.6238 172.539 59.0885 172.539C57.3777 172.539 56.1494 171.135 56.1494 169.599C56.1494 167.888 57.5531 166.659 59.0885 166.659C60.7993 166.659 62.0275 168.063 62.0275 169.599Z" fill="#FAFAFA"/>
<path d="M59.7026 175.61C59.7026 176.532 58.913 177.322 57.9918 177.322C57.0706 177.322 56.281 176.532 56.281 175.61C56.281 174.689 57.0706 173.899 57.9918 173.899C58.9569 173.943 59.7026 174.689 59.7026 175.61Z" fill="#FAFAFA"/>
<path d="M6.53623 148.888C5.9221 149.809 4.51837 149.809 2.98303 147.791V144.72C2.98303 144.237 2.98303 143.623 2.98303 143.184C2.98303 142.745 2.98303 142.262 3.1585 141.78C3.33397 139.63 3.46557 137.611 3.9481 135.593C4.12357 134.671 4.25517 133.75 4.56223 132.828C5.96597 134.057 7.32583 136.383 7.5013 138.401C7.6329 141.911 7.45743 147.791 6.53623 148.888Z" fill="#37474F"/>
<path d="M4.0797 143.008C3.59717 143.008 3.2901 143.184 2.98303 143.491C2.98303 143.974 2.98303 144.281 2.98303 144.72V145.948C3.2901 146.255 3.59717 146.431 4.0797 146.431C5.0009 146.431 5.61503 145.641 5.61503 144.895C5.61503 143.798 5.0009 143.008 4.0797 143.008Z" fill="#FAFAFA"/>
<path d="M6.22911 138.533C6.22911 140.244 4.82538 141.604 3.15845 141.78C3.33391 139.63 3.46551 137.611 3.94805 135.593C5.17631 135.9 6.22911 136.997 6.22911 138.533Z" fill="#FAFAFA"/>
<path d="M200.953 72.2318C207.928 81.0514 187.662 95.0926 178.537 100.358C169.413 105.448 112.386 138.533 112.386 138.533C112.386 138.533 182.705 101.28 199.681 95.0926C210.955 90.9242 213.587 104.965 213.587 108.081V99.2611C213.631 89.52 211.613 81.1831 200.953 72.2318Z" fill="#FAFAFA"/>
<path opacity="0.1" d="M200.953 72.2318C207.928 81.0514 187.662 95.0926 178.537 100.358C169.413 105.448 112.386 138.533 112.386 138.533C112.386 138.533 182.705 101.28 199.681 95.0926C210.955 90.9242 213.587 104.965 213.587 108.081V99.2611C213.631 89.52 211.613 81.1831 200.953 72.2318Z" fill="white"/>
<path d="M89.4003 170.696C91.1111 168.677 93.1289 166.834 95.2784 165.299C97.4279 163.763 99.9283 162.666 102.692 162.227C104.096 162.052 105.455 162.052 106.728 162.227C108.131 162.534 109.36 163.017 110.456 163.938C112.606 165.474 114.009 167.975 114.799 170.564C113.878 168.107 112.343 165.781 110.325 164.377C109.228 163.587 108 163.149 106.771 162.842C105.543 162.666 104.139 162.666 102.911 162.842C100.279 163.324 97.9543 164.377 95.6293 165.781C93.2605 166.966 91.2427 168.677 89.4003 170.696Z" fill="#FAFAFA"/>
<path d="M179.02 118.743C180.731 116.725 182.749 114.882 184.898 113.346C187.047 111.81 189.548 110.713 192.311 110.275C193.715 110.099 195.075 110.099 196.347 110.275C197.751 110.582 198.979 111.065 200.076 111.986C202.225 113.522 203.629 116.023 204.419 118.612C203.498 116.154 201.962 113.829 199.944 112.425C198.848 111.635 197.619 111.196 196.391 110.889C195.163 110.714 193.759 110.714 192.531 110.889C189.899 111.372 187.574 112.425 185.249 113.829C182.88 115.189 180.862 116.9 179.02 118.743Z" fill="#FAFAFA"/>
<path opacity="0.2" d="M116.729 168.985C125.064 163.587 133.574 158.454 142.084 153.539C146.427 151.082 150.594 148.581 154.893 146.124C159.236 143.666 163.535 141.165 167.878 138.84L167.571 139.322C167.878 136.383 168.667 133.618 169.896 130.985C170.992 128.353 172.528 125.896 174.677 123.877C172.835 126.027 171.606 128.528 170.641 131.161C169.676 133.794 169.106 136.558 168.931 139.366V139.673L168.623 139.849C164.456 142.482 160.113 144.939 155.814 147.44C151.647 149.897 147.304 152.398 143.005 154.856C134.188 159.858 125.546 164.509 116.729 168.985Z" fill="black"/>
<path d="M208.542 80.3932C209.946 84.1229 206.217 89.8272 206.831 95.0926C207.446 100.49 211.613 100.797 213.455 95.0926C214.245 89.0813 209.77 81.1831 208.542 80.3932Z" fill="#28995A"/>
<path opacity="0.7" d="M208.542 80.3932C209.946 84.1229 206.217 89.8272 206.831 95.0926C207.446 100.49 211.613 100.797 213.455 95.0926C214.245 89.0813 209.77 81.1831 208.542 80.3932Z" fill="white"/>
<path d="M9.4753 124.14C12.546 118.568 15.9676 113.478 20.1349 109.134C21.8457 107.291 24.9164 107.115 26.9342 108.651C40.84 118.524 55.8424 127.036 71.2834 134.32C73.4329 135.417 74.3541 137.874 73.3013 140.2C70.6693 145.597 68.8269 151.652 67.2916 157.971C66.6774 160.297 64.528 161.701 62.203 160.735C42.7262 153.013 25.5744 143.272 10.879 131.205C8.86117 129.406 8.24704 126.334 9.4753 124.14Z" fill="#263238"/>
<path d="M63.5629 159.243C63.2558 159.243 62.9488 159.243 62.6417 159.068C42.8578 151.214 25.706 141.297 11.6686 129.889C10.2649 128.792 9.95783 126.466 10.7474 125.106C13.9936 119.094 17.3713 114.268 21.1 110.406C21.7141 109.792 22.6353 109.485 23.5565 109.485C24.3461 109.485 25.0918 109.792 25.706 110.099C39.1292 119.665 54.307 128.353 70.3622 135.9C70.9764 136.207 71.4589 136.69 71.766 137.436C72.073 138.226 71.9414 138.971 71.5905 139.586C69.134 144.676 67.1161 150.731 65.4053 157.664C65.4492 158.629 64.6596 159.243 63.5629 159.243Z" fill="#455A64"/>
<path d="M71.8975 137.129C71.5905 136.514 71.1079 135.9 70.4938 135.593C56.7197 129.099 43.779 121.815 31.7157 113.961L10.221 126.334C10.0455 127.563 10.5281 128.967 11.6247 129.889C25.5305 141.341 42.6823 151.214 62.6417 159.112C62.9487 159.287 63.2558 159.287 63.5629 159.287C64.6595 159.287 65.4053 158.497 65.7123 157.444C67.4231 150.468 69.441 144.456 71.8975 139.366C72.2485 138.664 72.2485 137.918 71.8975 137.129Z" fill="#37474F"/>
<path d="M1.93019 155.075C2.54432 158.015 12.2827 167.58 28.5134 176.576C44.744 185.571 58.3427 192.811 66.5458 192.504C74.7488 192.021 85.1014 185.22 85.1014 185.22C85.1014 185.22 83.0835 191.231 82.9519 194.039C82.9519 194.039 74.4418 199.436 67.3354 199.919C62.6855 200.226 56.6758 201.148 28.2502 184.781C9.38752 173.943 3.68485 167.931 1.53539 163.149C0.438721 160.691 0.438721 157.137 0.438721 155.558C0.614187 150.161 2.89525 149.678 2.89525 149.678C2.06179 150.906 1.31605 152.135 1.93019 155.075Z" fill="#FAFAFA"/>
<path opacity="0.3" d="M1.93019 155.075C2.54432 158.015 12.2827 167.58 28.5134 176.576C44.744 185.571 58.3427 192.811 66.5458 192.504C74.7488 192.021 85.1014 185.22 85.1014 185.22C85.1014 185.22 83.0835 191.231 82.9519 194.039C82.9519 194.039 74.4418 199.436 67.3354 199.919C62.6855 200.226 56.6758 201.148 28.2502 184.781C9.38752 173.943 3.68485 167.931 1.53539 163.149C0.438721 160.691 0.438721 157.137 0.438721 155.558C0.614187 150.161 2.89525 149.678 2.89525 149.678C2.06179 150.906 1.31605 152.135 1.93019 155.075Z" fill="black"/>
<path d="M2.98301 149.809C1.88635 150.731 1.27221 151.96 1.88635 155.075C2.50048 158.015 12.2389 167.58 28.4696 176.576C44.7002 185.571 58.2989 192.811 66.502 192.504C74.705 192.021 85.0576 185.22 85.0576 185.22L84.1364 184.737C84.1364 184.737 73.6084 191.363 66.502 191.363C59.3956 191.187 49.6572 187.633 29.5662 176.049C9.47528 164.289 4.07968 157.181 3.15848 154.724L2.98301 149.809Z" fill="#FAFAFA"/>
<path d="M173.756 113.171C175.905 112.249 176.827 110.845 177.178 108.52C177.485 106.194 177.353 103.737 173.756 101.236C170.203 98.9101 167.571 99.6999 166.167 100.314L173.756 113.171Z" fill="#455A64"/>
<path d="M172.352 113.478C171.87 113.478 171.256 113.171 170.817 112.864L167.088 110.406C165.553 109.309 164.325 107.159 164.632 105.316L164.939 102.552C165.114 101.016 166.167 100.095 167.702 100.226C168.185 100.226 168.799 100.534 169.238 100.841L172.966 103.298C174.502 104.395 175.73 106.545 175.423 108.388L175.116 111.152C174.853 112.732 173.756 113.653 172.352 113.478Z" fill="#263238"/>
<path d="M168.492 101.587L172.221 104.044C173.624 104.965 174.546 106.808 174.37 108.212L174.063 110.977C173.888 112.381 172.659 112.82 171.431 112.074L167.702 109.617C166.299 108.695 165.377 106.852 165.553 105.448L165.86 102.684C166.035 101.104 167.264 100.665 168.492 101.587Z" fill="#455A64"/>
<g opacity="0.2">
<path opacity="0.2" d="M169.589 102.333L165.553 105.273L165.86 102.025L167.088 101.236C167.571 101.236 168.009 101.236 168.624 101.718L169.589 102.333Z" fill="white"/>
<path opacity="0.2" d="M172.835 104.527L166.825 108.871C166.65 108.695 166.518 108.388 166.342 108.256L172.221 104.088C172.352 104.219 172.659 104.351 172.835 104.527Z" fill="white"/>
<path opacity="0.2" d="M174.37 108.212V108.695L170.51 111.459L168.799 110.362L174.195 106.501C174.238 107.159 174.37 107.774 174.37 108.212Z" fill="white"/>
</g>
<g opacity="0.2">
<path opacity="0.2" d="M85.9787 139.937C86.1541 144.588 86.2857 149.371 86.5928 154.022C86.7683 156.347 87.0753 158.673 87.9965 160.823C88.4791 161.92 89.2248 162.666 90.4531 162.842C91.5497 162.842 92.6025 162.359 93.6992 161.92C95.8487 161.13 98.1736 160.384 100.499 159.77C102.823 159.287 105.148 158.98 107.605 159.463C109.93 159.945 112.079 161.306 113.483 163.324C114.887 165.167 115.633 167.493 116.247 169.643C115.457 167.493 114.711 165.167 113.176 163.456C111.772 161.613 109.754 160.209 107.473 159.902C105.148 159.419 102.823 159.726 100.674 160.209C98.3491 160.691 96.1996 161.613 94.0501 162.359C93.436 162.534 92.9535 162.841 92.3393 162.973C92.0323 162.973 91.7252 163.149 91.4181 163.149H90.4969C89.0932 163.149 88.172 161.92 87.7333 160.823C86.6367 158.673 86.6367 156.172 86.3296 153.846C85.8471 149.327 85.9787 144.544 85.9787 139.937Z" fill="black"/>
</g>
<g opacity="0.2">
<path opacity="0.2" d="M124.757 130.327C124.932 136.032 125.064 141.78 125.064 147.484V155.996C125.064 158.761 124.888 161.701 124.888 164.509C124.713 161.745 124.713 158.805 124.713 155.996V147.484C124.625 141.78 124.625 136.032 124.757 130.327Z" fill="black"/>
</g>
<g opacity="0.2">
<path opacity="0.2" d="M163.403 108.212C163.579 113.917 163.71 119.489 163.71 125.237V133.75C163.71 136.514 163.535 139.454 163.535 142.262C163.359 139.498 163.359 136.558 163.359 133.75V125.237C163.096 119.533 163.096 113.785 163.403 108.212Z" fill="black"/>
</g>
<path d="M97.8666 148.713L103.131 145.773C104.227 145.158 104.973 145.29 104.973 145.948C104.973 146.738 104.052 147.791 103.131 148.405L97.8666 151.345C96.7699 151.96 96.0242 151.828 96.0242 151.17C96.0242 150.424 96.8138 149.327 97.8666 148.713Z" fill="#37474F"/>
<path d="M129.407 130.503L134.671 127.563C135.767 126.949 136.513 127.08 136.513 127.738C136.513 128.528 135.592 129.581 134.671 130.196L129.407 133.136C128.31 133.75 127.564 133.618 127.564 132.96C127.564 132.17 128.31 131.117 129.407 130.503Z" fill="#37474F"/>
<path d="M193.847 212.979C193.847 212.979 195.733 213.286 196.786 214.647C197.883 216.007 200.251 220.088 200.734 220.57C200.734 220.57 200.295 221.316 199.681 221.667L198.409 220.219C198.102 219.956 197.575 219.298 197.575 220.175C197.575 221.009 197.707 221.799 197.839 223.466C197.926 224.475 198.277 226.45 196.567 228.337C194.943 230.136 193.013 231.364 191.829 231.54C191.127 231.628 189.504 231.496 189.592 230.048C189.636 229.302 190.513 226.45 190.645 225.046C190.732 223.642 193.847 212.979 193.847 212.979Z" fill="#1A2E35"/>
<path d="M194.11 213.33C193.891 213.023 193.101 211.751 192.75 211.136C192.399 210.522 190.864 207.407 188.978 202.58C186.521 196.349 182.485 191.786 181.213 189.46C179.897 187.003 178.537 184.151 177.704 181.518L172.659 184.897L166.035 184.765C165.948 185.73 166.386 187.047 167.132 188.583V188.626C167.22 188.758 167.264 188.89 167.351 189.065C168.843 191.961 171.343 195.472 174.195 199.07C174.238 199.113 174.238 199.113 174.282 199.157C174.326 199.201 174.37 199.245 174.37 199.289C177.09 202.712 180.073 206.222 182.661 209.249V209.162C185.468 212.409 187.705 215.041 188.539 216.358C190.908 220.219 190.645 223.993 190.645 226.055C190.645 227.328 191.653 227.591 193.013 226.45C195.777 224.168 195.952 221.053 195.952 220.263C195.909 215.305 195.514 215.129 194.11 213.33Z" fill="#DD8669"/>
<path d="M167.615 148.697C167.176 152.69 165.333 157.516 164.632 166.994C163.974 175.902 163.71 180.509 164.456 184.897C164.719 186.476 165.597 188.275 167.132 190.513C172.045 197.622 181.652 208.723 181.652 208.723C181.652 208.723 183.757 208.591 186.214 206.441C188.583 204.335 188.583 201.351 188.583 201.351C188.583 201.351 188.276 199.684 184.196 193.146C180.117 186.608 179.371 179.368 179.371 179.368L180.906 150.847C174.94 151.593 170.51 150.891 167.615 148.697Z" fill="#375A64"/>
<path d="M186.214 206.441C188.583 204.335 188.583 201.351 188.583 201.351C188.583 201.351 188.276 199.684 184.196 193.146C180.117 186.608 179.371 179.368 179.371 179.368L180.555 157.516C175.861 156.946 169.281 157.253 169.281 157.253C169.281 160.368 170.071 164.186 174.502 166.38C174.502 166.38 174.238 181.737 174.282 186.213C174.326 189.636 175.598 198.28 176.169 202.229C179.239 205.959 181.652 208.767 181.652 208.767C181.652 208.767 183.757 208.591 186.214 206.441Z" fill="#2B454E"/>
<path d="M185.644 222.194C185.644 222.194 187.047 223.554 187.223 225.441C187.398 227.284 187.179 232.417 187.311 233.076C187.311 233.076 186.565 233.514 185.819 233.471L185.512 231.408C185.38 230.969 185.424 230.662 184.986 231.408C184.547 232.198 184.152 233.032 183.45 234.173C182.88 235.05 182.134 237.156 179.634 237.902C177.309 238.604 174.633 238.341 173.536 237.815C172.878 237.507 171.694 236.981 172.571 235.752C173.01 235.094 175.554 232.417 176.388 231.233C177.265 230.004 185.644 222.194 185.644 222.194Z" fill="#1A2E35"/>
<path d="M179.327 222.106C179.459 217.235 174.853 194.945 176.081 184.458L189.153 184.282C188.407 187.178 188.013 190.557 187.793 193.541C187.574 196.393 188.495 202.887 187.179 209.951C186.126 215.436 185.731 219.166 185.688 219.912C185.688 220.658 185.6 222.281 185.644 222.676C185.863 225.09 185.468 226.45 182.836 230.267C182.31 231.013 181.082 233.383 177.528 233.865C175.774 234.085 175.072 233.295 175.774 232.11C176.958 230.267 179.239 226.976 179.327 222.106Z" fill="#DD8669"/>
<path d="M187.837 193.585C187.793 194.682 187.881 195.779 187.925 196.919C187.969 198.016 188.013 199.113 188.056 200.254C188.1 202.448 188.056 204.686 187.837 206.924C187.705 208.021 187.53 209.118 187.355 210.215L186.74 213.462C186.565 214.559 186.346 215.612 186.17 216.709C185.995 217.806 185.819 218.903 185.731 220C185.819 217.806 186.17 215.612 186.477 213.418C186.784 211.224 187.311 209.074 187.486 206.88C187.618 205.783 187.705 204.686 187.749 203.589C187.793 202.492 187.793 201.395 187.793 200.298C187.793 199.201 187.793 198.104 187.749 196.963C187.749 195.779 187.749 194.682 187.837 193.585Z" fill="#C66150"/>
<path d="M167.615 148.697C167.615 148.697 166.869 153.611 168.667 158.262C170.203 162.299 173.01 164.493 175.905 165.327C175.905 165.327 175.598 183.668 175.423 186.213C175.247 188.758 176.169 197.973 176.914 204.028C177.66 210.083 177.879 212.145 177.879 212.145C177.879 212.145 179.195 213.462 182.705 213.418C186.214 213.374 187.311 211.794 187.311 211.794C187.311 211.794 189.285 204.686 189.197 199.157C189.153 195.998 188.407 194.462 188.89 191.303C189.372 188.144 193.189 174.059 193.671 167.389C194.154 160.763 192.882 154.971 188.1 148.39C183.275 151.9 172.177 151.768 167.615 148.697Z" fill="#375A64"/>
<path d="M186.126 149.53C188.714 152.953 192.531 160.061 190.381 170.548C189.767 173.532 189.153 176.428 188.539 179.193C187.135 185.73 186.039 190.864 185.951 192.795C185.907 193.892 186.039 194.901 186.214 196.086C186.477 197.929 186.828 200.254 186.477 203.809C186.17 207.143 185.644 210.654 185.249 213.067C185.381 213.023 185.556 212.979 185.644 212.935C186.039 210.566 186.521 207.143 186.828 203.852C187.179 200.21 186.828 197.885 186.565 196.042C186.389 194.901 186.258 193.892 186.302 192.839C186.39 190.908 187.486 185.774 188.89 179.28C189.504 176.516 190.118 173.62 190.732 170.636C192.926 160.061 189.109 152.865 186.477 149.355C186.346 149.443 186.214 149.487 186.126 149.53Z" fill="#2B454E"/>
<path d="M167.483 147.6C167.483 147.6 170.729 149.794 177.265 149.706C184.635 149.618 188.1 147.249 188.1 147.249C188.1 147.249 188.144 148.477 188.846 149.618C188.846 149.618 184.679 152.251 177.309 152.207C169.983 152.163 167.395 149.925 167.395 149.925C167.395 149.925 167.614 148.697 167.483 147.6Z" fill="#2B454E"/>
<path d="M172.089 125.309C169.896 125.66 168.229 125.66 166.342 128.381C164.368 131.145 162.131 134.568 159.148 138.824L151.822 135.138L148.708 140.184C148.708 140.184 156.516 145.537 159.455 146.634C161.649 147.424 162.175 146.503 163.886 144.835C165.772 142.992 171.255 136.981 171.255 136.981L172.089 125.309Z" fill="#DD8669"/>
<path d="M172.308 125.134C169.676 125.441 168.229 126.055 167.395 126.845C166.562 127.635 159.017 138.648 159.017 138.648L157.613 138.034C157.613 138.034 158.71 139.263 157.832 142.159C156.955 145.055 155.639 144.66 155.639 144.66C155.639 144.66 158.139 146.283 159.587 146.898C161.035 147.512 161.78 147.117 163.359 145.669C164.939 144.221 171.563 137.069 171.563 137.069L172.308 125.134Z" fill="#28995A"/>
<path opacity="0.15" d="M172.308 125.134C169.676 125.441 168.229 126.055 167.395 126.845C166.562 127.635 159.017 138.648 159.017 138.648L157.613 138.034C157.613 138.034 158.71 139.263 157.832 142.159C156.955 145.055 155.639 144.66 155.639 144.66C155.639 144.66 158.139 146.283 159.587 146.898C161.035 147.512 161.78 147.117 163.359 145.669C164.939 144.221 171.563 137.069 171.563 137.069L172.308 125.134Z" fill="black"/>
<path opacity="0.35" d="M159.017 138.648C160.245 139.131 161.692 140.491 161.868 141.237C161.561 139.219 159.938 138.429 159.368 138.122L159.017 138.648Z" fill="black"/>
<path d="M143.4 126.055L144.058 125.616C144.19 125.529 144.409 125.529 144.672 125.66L150.77 128.381C151.34 128.644 151.91 129.346 151.998 129.96L154.586 143.958C154.63 144.265 154.586 144.528 154.411 144.616L153.709 145.055C153.577 145.143 153.358 145.143 153.095 145.055L146.997 142.334C146.427 142.071 145.857 141.369 145.769 140.755C145.242 137.99 143.663 129.522 143.181 126.757C143.137 126.406 143.225 126.187 143.4 126.055Z" fill="#375A64"/>
<path d="M150.77 129.258C151.077 129.566 151.296 129.96 151.384 130.355L153.972 144.353C154.016 144.66 153.972 144.879 153.796 145.011L154.454 144.616C154.63 144.484 154.718 144.265 154.63 143.958L152.042 129.96C151.998 129.609 151.779 129.258 151.515 128.951L150.77 129.258Z" fill="#1A2E35"/>
<path d="M153.972 144.353L151.384 130.355C151.252 129.741 150.726 129.039 150.155 128.776L144.058 126.055C143.488 125.792 143.137 126.099 143.225 126.713C143.751 129.478 145.33 137.946 145.813 140.711C145.944 141.325 146.471 142.027 147.041 142.29L153.138 145.011C153.709 145.274 154.06 144.967 153.972 144.353Z" fill="#2B454E"/>
<path d="M150.945 133.164L150.463 130.531C150.463 130.399 150.331 130.268 150.243 130.224L149.103 129.697C149.015 129.653 148.927 129.697 148.927 129.829C149.015 130.355 149.322 131.935 149.41 132.462C149.41 132.593 149.541 132.725 149.629 132.769L150.77 133.295C150.857 133.339 150.945 133.251 150.945 133.164Z" fill="#375A64"/>
<path d="M150.287 131.101C150.243 130.838 149.98 130.487 149.673 130.355C149.41 130.224 149.234 130.355 149.278 130.619C149.322 130.882 149.585 131.233 149.892 131.365C150.156 131.54 150.331 131.408 150.287 131.101Z" fill="#1A2E35"/>
<path d="M150.506 132.462C150.463 132.198 150.199 131.847 149.892 131.716C149.629 131.584 149.454 131.716 149.498 131.979C149.541 132.242 149.805 132.593 150.112 132.725C150.375 132.856 150.594 132.725 150.506 132.462Z" fill="#1A2E35"/>
<path d="M143.268 134.261C142.698 133.295 142.742 133.164 143.137 132.725C143.532 132.286 144.409 131.584 145.593 131.716C146.383 131.803 147.216 131.847 147.611 132.111C148.006 132.374 147.567 133.208 146.515 133.339C144.848 133.559 144.804 134.041 144.804 134.041C144.804 134.041 146.339 133.822 146.953 133.822C147.567 133.822 148.664 134.217 149.366 134.392C150.068 134.568 150.112 135.489 148.927 135.665C148.927 135.665 149.805 135.884 150.199 135.972C151.077 136.191 151.34 136.674 150.594 137.2C150.419 137.332 150.156 137.464 149.761 137.42C149.761 137.42 150.726 137.508 150.726 137.815C150.726 138.736 150.112 138.912 148.138 139.307C146.251 139.702 145.813 140.667 146.12 141.369C146.12 141.369 145.418 140.886 144.804 140.36C144.365 139.965 143.97 139.57 144.234 138.824C144.234 138.824 143.181 138.78 143.181 138.122C143.181 137.464 143.532 136.762 143.532 136.762C143.532 136.762 142.918 136.411 143.049 135.621C143.137 134.831 143.532 134.524 143.532 134.524L143.268 134.261Z" fill="#DD8669"/>
<path d="M148.927 135.709C148.533 135.621 148.182 135.489 147.787 135.489C147.348 135.489 146.997 135.621 146.646 135.752C145.944 136.016 145.199 136.279 144.541 136.674C145.33 136.542 146.032 136.323 146.778 136.06C147.129 135.928 147.48 135.796 147.831 135.752C148.138 135.709 148.533 135.752 148.927 135.709Z" fill="#C66150"/>
<path d="M149.761 137.464C149.366 137.332 148.927 137.288 148.489 137.332C148.05 137.376 147.655 137.508 147.26 137.595C146.471 137.859 145.681 138.166 144.979 138.605C145.813 138.429 146.602 138.166 147.348 137.946C148.138 137.683 148.883 137.42 149.761 137.464Z" fill="#C66150"/>
<path d="M192.136 155.279C190.381 150.145 189.241 147.161 189.197 145.494C189.197 145.494 190.688 137.288 190.908 135.358C191.478 130.312 190.557 127.942 189.548 127.416C188.978 127.108 186.565 126.406 185.775 126.187C182.266 125.178 177.265 125.09 174.019 125.134C172.791 125.178 172.44 125.222 172.44 125.222C171.343 126.055 169.501 127.547 168.053 129.215C165.465 132.198 164.675 134.217 165.07 137.332C165.333 139.438 166.781 140.974 166.781 140.974C167 142.466 167.307 146.678 167.307 146.678C167.264 148.346 167.395 148.302 166.562 152.295C169.15 160.193 186.784 159.666 192.136 155.279Z" fill="#FAFAFA"/>
<path d="M184.24 104.555C185.863 103.853 187.881 104.291 189.109 105.564C190.337 106.88 190.601 108.767 190.776 110.522C190.952 112.014 191.171 113.594 191.215 115.086C191.259 116.402 192.136 117.148 193.101 118.025C193.935 118.771 194.724 119.781 194.636 120.878C194.549 121.624 194.066 122.282 194.154 123.028C194.242 123.598 194.636 124.081 195.031 124.519C195.689 125.309 196.347 126.231 196.303 127.284C196.216 128.425 195.294 129.346 194.285 129.873C191.697 131.233 188.627 130.663 186.17 129.258C183.757 127.854 182.485 124.958 182.31 122.282C182.178 120.483 182.485 118.728 182.792 116.928C183.012 115.612 183.231 114.34 183.582 113.067C183.801 112.277 184.108 111.488 184.284 110.654C184.679 108.986 184.635 107.231 184.152 105.608" fill="#1A2E35"/>
<path d="M185.995 104.511C186.828 105.213 187.442 106.178 187.705 107.231C187.793 107.495 187.793 107.846 187.705 108.109C187.53 108.504 187.047 108.723 186.609 108.679C186.17 108.635 185.775 108.372 185.424 108.065C184.723 107.407 184.24 106.529 184.108 105.564C184.021 105.125 184.065 104.423 184.503 104.16C184.986 103.853 185.644 104.204 185.995 104.511Z" fill="#28995A"/>
<path d="M169.545 111.18C168.536 109.03 169.369 106.09 170.466 104.686C172.045 102.668 174.589 101.746 178.493 101.834C181.432 101.922 185.03 103.151 185.688 106.134C188.451 107.451 187.618 111.268 186.916 112.892C185.468 116.314 183.406 118.991 183.406 120.746L169.545 111.18Z" fill="#1A2E35"/>
<path d="M171.124 106.573C170.466 107.1 169.369 108.548 169.545 111.18C169.632 111.97 169.369 112.979 169.369 114.471C169.369 120.132 170.948 121.316 172.484 121.975C173.405 122.369 173.887 122.457 175.335 122.413V125.046C175.335 125.046 173.142 126.757 174.677 131.321C181.564 126.67 183.45 124.651 183.45 124.651L183.494 117.455C183.538 117.499 184.415 118.245 185.819 117.455C187.355 116.621 187.969 114.032 186.96 112.804C185.951 111.619 184.152 112.146 183.626 113.287C182.749 115.173 181.74 114.252 182.091 113.418C181.345 113.067 180.467 112.321 181.125 109.381C181.257 108.635 180.994 107.319 180.292 106.661C179.108 105.608 176.783 105.827 175.467 107.187C173.624 105.695 172.484 105.476 171.124 106.573Z" fill="#DD8669"/>
<path d="M176.739 117.06L174.107 117.982C174.326 118.728 175.116 119.122 175.818 118.859C176.563 118.64 176.958 117.806 176.739 117.06Z" fill="#C66150"/>
<path d="M175.247 118.947C175.247 118.289 175.818 117.718 176.476 117.718C176.563 117.718 176.695 117.718 176.783 117.762C176.695 118.289 176.344 118.728 175.861 118.903C175.642 118.947 175.467 118.947 175.247 118.947Z" fill="#FFAAA8"/>
<path d="M174.677 111.312L174.326 116.358L171.782 115.173L174.677 111.312Z" fill="#C66150"/>
<path d="M175.335 122.413C177.134 122.326 181.038 121.316 181.959 118.903C181.959 118.903 181.827 120.614 179.59 121.975C177.835 123.028 175.335 123.247 175.335 123.247V122.413Z" fill="#C66150"/>
<path d="M176.739 112.892C176.783 113.33 177.177 113.638 177.616 113.638C178.055 113.594 178.362 113.199 178.362 112.76C178.318 112.321 177.923 112.014 177.485 112.014C177.002 112.058 176.695 112.453 176.739 112.892Z" fill="#1A2E35"/>
<path d="M170.729 112.716C170.817 113.155 171.255 113.418 171.694 113.33C172.133 113.243 172.396 112.804 172.308 112.365C172.22 111.926 171.782 111.663 171.343 111.751C170.904 111.839 170.641 112.277 170.729 112.716Z" fill="#1A2E35"/>
<path d="M171.036 109.557C171.65 109.425 172.264 109.776 172.44 110.391L170.203 110.917C170.027 110.347 170.422 109.689 171.036 109.557Z" fill="#1A2E35"/>
<path d="M178.581 109.996C179.151 110.259 179.459 110.917 179.195 111.488L177.09 110.566C177.309 109.996 177.967 109.732 178.581 109.996Z" fill="#1A2E35"/>
<path d="M171.606 103.545H180.248C186.082 105.827 183.757 112.716 182.529 113.638C179.064 112.19 179.459 109.337 179.722 107.363C177.967 108.986 175.028 110.215 173.668 110.347C174.326 109.601 174.852 107.67 174.852 107.67C174.852 107.67 174.063 109.513 172.133 110.61C169.983 111.839 168.536 111.005 168.536 111.005C168.536 111.005 167.79 105.827 171.606 103.545Z" fill="#1A2E35"/>
<path d="M182.88 124.256C182.88 124.256 182.792 125.265 182.09 127.503C181.389 129.741 181.125 131.54 180.994 136.367C180.862 141.193 182.617 163.659 182.09 169.144C185.688 169.144 191.39 166.775 194.022 163.879C193.934 161.992 193.364 157.867 192.092 152.997C190.82 148.126 189.504 147.731 189.767 145.143C190.03 142.554 191.917 132.067 189.811 126.801C189.811 126.801 189.153 126.757 186.697 126.187C183.319 125.353 182.88 124.256 182.88 124.256Z" fill="#28995A"/>
<path opacity="0.4" d="M182.88 124.256C182.88 124.256 182.792 125.265 182.09 127.503C181.389 129.741 181.125 131.54 180.994 136.367C180.862 141.193 182.617 163.659 182.09 169.144C185.688 169.144 191.39 166.775 194.022 163.879C193.934 161.992 193.364 157.867 192.092 152.997C190.82 148.126 189.504 147.731 189.767 145.143C190.03 142.554 191.917 132.067 189.811 126.801C189.811 126.801 189.153 126.757 186.697 126.187C183.319 125.353 182.88 124.256 182.88 124.256Z" fill="white"/>
<path d="M175.247 123.993L175.116 124.476C175.116 125.836 172.264 128.03 170.29 131.321C168.316 134.568 167.965 137.727 168.097 141.896C168.141 142.729 168.097 147.293 167.571 150.671C166.693 156.068 165.07 161.202 164.851 164.23C164.851 164.23 165.333 159.623 165.509 156.858C165.728 153.699 166.562 149.794 166.562 146.678C166.562 144.221 166.474 141.588 166.474 141.588C166.474 141.588 163.754 138.561 164.895 134.041C166.035 129.522 172.264 125.09 172.264 125.09C172.264 125.09 172.44 125.002 173.493 124.783C174.282 124.651 175.247 123.993 175.247 123.993Z" fill="#28995A"/>
<path opacity="0.4" d="M175.247 123.993L175.116 124.476C175.116 125.836 172.264 128.03 170.29 131.321C168.316 134.568 167.965 137.727 168.097 141.896C168.141 142.729 168.097 147.293 167.571 150.671C166.693 156.068 165.07 161.202 164.851 164.23C164.851 164.23 165.333 159.623 165.509 156.858C165.728 153.699 166.562 149.794 166.562 146.678C166.562 144.221 166.474 141.588 166.474 141.588C166.474 141.588 163.754 138.561 164.895 134.041C166.035 129.522 172.264 125.09 172.264 125.09C172.264 125.09 172.44 125.002 173.493 124.783C174.282 124.651 175.247 123.993 175.247 123.993Z" fill="white"/>
<path d="M183.407 122.326C184.065 124.695 185.6 125.836 185.6 125.836C185.6 125.836 184.679 130.224 184.81 132.374C184.986 134.524 185.424 136.586 184.81 136.586C184.24 136.586 182.441 136.016 182.441 136.016C182.441 136.016 183.889 138.122 183.714 138.78C183.582 139.438 181.345 146.81 181.345 146.81C181.345 146.81 180.424 138.297 180.555 135.796C180.687 133.295 181.169 128.688 182.047 126.055C182.705 124.212 183.407 122.326 183.407 122.326Z" fill="#28995A"/>
<path d="M168.053 145.625C167.922 143.212 166.693 137.2 166.518 136.016C166.342 134.831 168.053 133.734 168.053 133.734C168.053 133.734 167.044 133.997 166.693 133.734C166.342 133.471 168.404 130.487 170.203 128.469C171.957 126.494 175.335 123.466 175.335 123.466V125.046C174.414 126.055 173.449 127.328 172.747 128.425C171.212 131.014 168.316 133.778 168.053 145.625Z" fill="#28995A"/>
<path d="M179.151 136.674C177.879 135.577 177.221 135.138 176.607 134.919C175.993 134.699 173.887 133.602 173.054 133.339C172.528 133.164 172.264 133.997 172.878 134.612C173.361 135.094 174.677 135.796 175.247 136.147C175.818 136.498 176.87 138.034 176.87 138.034L179.151 136.674Z" fill="#C66150"/>
<path d="M196.128 131.716C194.943 128.425 193.101 127.24 189.899 126.889C187.881 131.496 189.46 138.736 189.46 138.736L191.302 144.002C191.302 144.002 184.854 141.852 183.977 141.237C183.099 140.579 180.95 138.385 180.204 137.552C179.151 136.411 178.625 136.498 178.055 136.542C176.168 136.674 175.774 136.806 175.335 137.025C174.94 137.244 174.94 137.727 174.94 137.727C174.458 137.771 173.712 137.683 173.536 138.473C173.449 139 173.449 139.131 173.449 139.131C173.449 139.131 173.273 139.131 173.098 139.307C172.659 139.745 173.229 141.457 173.668 141.896C173.975 142.203 174.414 142.247 174.984 142.247C175.467 142.203 175.291 141.676 175.291 141.676L175.993 141.764C177.397 142.949 177.353 145.055 179.283 145.669C179.678 145.801 180.555 145.845 181.696 146.327C185.863 148.082 191.346 153.348 196.084 153.699C199.813 153.962 200.295 152.207 200.339 149.925C200.383 147.512 197.181 134.656 196.128 131.716Z" fill="#DD8669"/>
<path d="M189.855 126.801C191.653 127.108 193.32 127.24 194.68 128.732C196.04 130.224 196.391 131.584 197.356 135.182C198.321 138.78 199.242 142.466 199.988 146.064C200.734 149.662 200.822 151.9 199.681 153.041C198.54 154.225 196.347 154.006 195.25 153.831C194.154 153.611 192.092 152.602 192.092 152.602C192.092 152.602 193.145 151.11 192.706 148.082C192.268 145.011 190.644 143.738 190.644 143.738L191.259 143.914C191.259 143.914 189.899 140.404 188.934 137.99C187.969 135.621 188.276 128.864 189.855 126.801Z" fill="#28995A"/>
<path opacity="0.15" d="M189.855 126.801C191.653 127.108 193.32 127.24 194.68 128.732C196.04 130.224 196.391 131.584 197.356 135.182C198.321 138.78 199.242 142.466 199.988 146.064C200.734 149.662 200.822 151.9 199.681 153.041C198.54 154.225 196.347 154.006 195.25 153.831C194.154 153.611 192.092 152.602 192.092 152.602C192.092 152.602 193.145 151.11 192.706 148.082C192.268 145.011 190.644 143.738 190.644 143.738L191.259 143.914C191.259 143.914 189.899 140.404 188.934 137.99C187.969 135.621 188.276 128.864 189.855 126.801Z" fill="black"/>
<path opacity="0.35" d="M190.864 142.949L191.259 143.958C193.452 144.484 195.689 145.099 196.303 145.889C195.645 144.528 193.934 143.563 190.864 142.949Z" fill="black"/>
<path d="M174.984 137.727L177.221 137.464L175.072 137.42C174.984 137.508 174.984 137.595 174.984 137.727Z" fill="#C66150"/>
<path d="M173.493 139.131L176.037 139L173.493 138.824C173.493 138.912 173.493 139 173.493 139.131Z" fill="#C66150"/>
<path d="M175.598 141.281C175.335 140.974 175.335 140.755 175.335 140.755C175.335 140.755 174.721 140.711 174.458 140.623C174.326 140.579 174.238 140.535 174.107 140.491C173.975 140.448 173.844 140.36 173.756 140.228C173.844 140.36 173.931 140.491 174.063 140.535C174.194 140.623 174.282 140.667 174.414 140.711L174.545 141.018C174.458 141.018 174.37 141.062 174.282 141.106C174.151 141.193 174.107 141.281 174.019 141.413C174.107 141.325 174.194 141.193 174.282 141.15C174.37 141.106 174.502 141.062 174.633 141.106C175.16 141.281 175.335 141.588 175.335 141.588L176.037 141.676C176.037 141.72 175.73 141.457 175.598 141.281Z" fill="#C66150"/>
<path d="M155.463 95.4718C157.744 96.9636 159.236 99.2014 159.85 101.615L160.069 102.756C160.376 105.081 159.894 107.538 158.49 109.688C155.42 114.427 149.015 115.788 144.277 112.716C142.172 111.356 140.724 109.294 140.022 107.056L139.759 105.915C139.32 103.414 139.759 100.781 141.251 98.4994C144.321 93.7166 150.682 92.3564 155.463 95.4718Z" fill="white"/>
<path d="M140.505 98.0167C137.171 103.194 138.619 110.083 143.795 113.462C148.401 116.49 154.455 115.568 158.095 111.663L161.473 112.365C162.043 112.497 162.482 111.839 162.131 111.356L160.113 108.548C162.219 103.633 160.596 97.7535 155.946 94.7697C150.77 91.391 143.839 92.839 140.505 98.0167ZM155.463 95.4718C157.745 96.9636 159.236 99.2015 159.85 101.615L160.069 102.756C160.377 105.081 159.894 107.538 158.49 109.688C155.42 114.427 149.015 115.788 144.277 112.716C142.172 111.356 140.724 109.294 140.022 107.056L139.759 105.915C139.321 103.414 139.759 100.781 141.251 98.4994C144.321 93.7166 150.682 92.3564 155.463 95.4718Z" fill="#375A64"/>
<path opacity="0.7" d="M155.463 95.4718C157.744 96.9636 159.236 99.2014 159.85 101.615L160.069 102.756C160.376 105.081 159.894 107.538 158.49 109.688C155.42 114.427 149.015 115.788 144.277 112.716C142.172 111.356 140.724 109.294 140.022 107.056L139.759 105.915C139.32 103.414 139.759 100.781 141.251 98.4994C144.321 93.7166 150.682 92.3564 155.463 95.4718Z" fill="white"/>
<path d="M148.708 109.601C148.313 109.601 147.918 109.425 147.611 109.118L144.277 105.52C143.707 104.906 143.751 103.984 144.365 103.414C144.979 102.843 145.901 102.887 146.471 103.502L148.664 105.827L153.84 99.2892C154.367 98.631 155.288 98.5433 155.902 99.0259C156.56 99.5525 156.648 100.474 156.165 101.088L149.936 108.986C149.673 109.337 149.278 109.513 148.84 109.557C148.752 109.601 148.752 109.601 148.708 109.601Z" fill="#28995A"/>
</svg>
