<svg width="94" height="34" viewBox="0 0 94 34" fill="none" xmlns="http://www.w3.org/2000/svg">
<path d="M47.0644 12.0494V14.4343H40.9586V21.576H48.2964V7.27408H50.7429V21.576L48.2964 23.9629H40.9586L38.5114 21.576V14.4343L40.9586 12.0494H47.0644Z" fill="#262424"/>
<path d="M62.6573 12.0493L65.1048 14.4343V16.8195L62.6573 19.2068H56.4819V16.8195H62.6573V14.4343H55.322V21.576H63.8738V23.9629H55.322L52.8748 21.576V14.4343L55.322 12.0493H62.6573Z" fill="#262424"/>
<path d="M77.0213 12.0493L79.467 14.4343V21.576L77.0213 23.9629H70.915V21.576H77.0213V14.4343H69.684V28.7183H67.2361V14.4343L69.684 12.0493H77.0213Z" fill="#262424"/>
<path d="M93.8288 14.4343H84.0451V16.8195H91.3829L93.8286 19.2068V21.576L91.3829 23.9629H81.5977V21.576H91.3829V19.2068H84.0451L81.5977 16.8195V14.4343L84.0451 12.0493H93.8288V14.4343Z" fill="#262424"/>
<path d="M34.3082 16.0348C34.3448 13.3396 32.8349 10.0605 32.8349 10.0605C32.8349 10.0605 32.4481 9.10811 31.9599 8.60508C31.4717 8.10204 30.4305 7.54381 30.4305 7.54381C30.4305 7.54381 30.5488 7.32582 30.5488 6.85879C30.5488 6.39176 30.029 5.86695 29.897 5.73348C29.7651 5.60002 27.8436 3.52901 25.4768 2.33406C23.1105 1.13911 20.716 0.303589 17.2628 0.303589H17.2475C13.7942 0.303589 11.4 1.13911 9.03322 2.33406C6.66643 3.52901 4.74563 5.60002 4.61347 5.73348C4.4813 5.86695 3.96149 6.39176 3.96149 6.85879C3.96149 7.32582 4.08017 7.54381 4.08017 7.54381C4.08017 7.54381 3.03877 8.10204 2.55078 8.60508C2.06279 9.10811 1.67602 10.0605 1.67602 10.0605C1.67602 10.0605 0.165417 13.3396 0.202326 16.0348C0.202326 16.0348 0.162323 16.5411 1.03774 17.4107C1.03774 17.4107 0.210282 18.2024 0.305758 19.2275C0.305758 19.2275 0.464886 20.842 1.13344 22.5814C1.80178 24.3201 2.42259 25.3609 2.78859 25.8735C3.15458 26.386 4.42782 27.2088 5.08046 27.4261C5.08046 27.411 4.61899 28.3738 5.23981 29.1498C5.23981 29.1498 9.56873 33.7927 17.2402 33.9168H17.2703C24.9415 33.7927 29.2707 29.1498 29.2707 29.1498C29.8915 28.3735 29.43 27.411 29.43 27.4261C30.0827 27.2088 31.3557 26.386 31.7217 25.8735C32.0881 25.3609 32.7085 24.3204 33.377 22.5814C34.0452 20.8422 34.2045 19.2275 34.2045 19.2275C34.3 18.2024 33.4725 17.4107 33.4725 17.4107C34.3479 16.5411 34.3082 16.0348 34.3082 16.0348ZM2.8056 9.01949C3.30951 8.43603 4.31709 7.9606 4.31709 7.9606C4.31709 7.9606 5.49507 9.62948 10.6857 10.4827C14.6984 11.0937 17.2384 11.0129 17.2384 11.0129H17.2519C17.2519 11.0129 19.792 11.0937 23.8047 10.4827C28.9953 9.62948 30.1733 7.9606 30.1733 7.9606C30.1733 7.9606 31.1813 8.43603 31.685 9.01949C32.1887 9.60295 32.4364 10.4452 32.4364 10.4452C32.4364 10.4452 31.7471 12.5492 26.5931 13.5733C21.4394 14.5975 17.2612 14.5255 17.2612 14.5255H17.2292C17.2292 14.5255 13.051 14.5975 7.89701 13.5733C2.74306 12.5492 2.05395 10.4452 2.05395 10.4452C2.05395 10.4452 2.3017 9.60295 2.8056 9.01949ZM28.9129 28.7927C28.4401 29.3693 27.5143 30.0802 27.2091 30.2339C26.9039 30.3876 25.2103 31.1561 21.7829 31.5502C19.1729 31.8961 17.2466 31.7999 17.2466 31.7999C17.2466 31.7999 15.3163 31.8959 12.7064 31.5502C9.27921 31.1561 7.58539 30.3874 7.27995 30.2339C6.97452 30.0804 6.04893 29.3693 5.57619 28.7927C5.10345 28.2161 5.56646 27.6206 5.56646 27.6206C5.56646 27.6206 7.75269 28.5428 11.3278 28.9846C14.9028 29.4268 17.2369 29.3404 17.2369 29.3404H17.2528C17.2528 29.3404 19.5869 29.4266 23.1617 28.9846C26.7366 28.5428 28.923 27.6206 28.923 27.6206C28.923 27.6206 29.3858 28.2161 28.9129 28.7927ZM33.703 18.7635C33.7665 19.3101 33.5161 20.1973 33.5161 20.1973C33.5161 20.1973 33.4725 20.453 33.2424 20.6391C33.0124 20.8252 30.6058 22.8854 24.1074 23.6265C24.1074 23.6265 20.8791 24.0847 17.2506 24.0577H17.223C13.5947 24.0847 10.3661 23.6265 10.3661 23.6265C3.868 22.8852 1.46142 20.8252 1.23113 20.6391C1.00083 20.453 0.957296 20.1973 0.957296 20.1973C0.957296 20.1973 0.707334 19.3101 0.770985 18.7635C0.834414 18.2173 1.41766 17.7173 1.41766 17.7173C1.41766 17.7173 2.50216 18.6 5.33042 19.4625C8.15869 20.325 13.4291 21.0124 17.223 20.9313H17.2506C21.0447 21.0121 26.3149 20.325 29.1434 19.4625C31.9716 18.6 33.0559 17.7173 33.0559 17.7173C33.0559 17.7173 33.6396 18.2173 33.703 18.7635Z" fill="#02AA4E"/>
</svg>
